<svg xmlns="http://www.w3.org/2000/svg" width="500" height="500" viewBox="0 0 500 500">
<g>
<path d="M 112.67 419.27 C113.11,419.98 124.33,420.09 147.86,419.61 C166.87,419.23 182.54,418.79 182.69,418.64 C182.84,418.49 182.56,365.08 182.06,299.94 C181.56,234.81 181.38,181.29 181.66,181.01 C181.94,180.73 208.38,180.36 240.42,180.19 L 298.67 179.87 L 299.33 230.19 C299.70,257.86 300.05,305.48 300.12,336.00 C300.18,366.52 300.52,397.57 300.87,404.99 L 301.50 418.48 L 339.50 418.15 C360.40,417.97 377.87,417.47 378.33,417.04 C378.78,416.60 378.68,352.88 378.11,275.43 C377.53,197.98 377.30,134.36 377.61,134.06 C377.92,133.75 405.58,133.35 439.08,133.17 L 500.00 132.84 L 500.00 500.00 L 0.00 500.00 L 0.00 141.00 L 110.00 141.00 L 110.01 150.25 C110.10,207.57 112.18,418.49 112.67,419.27 ZM 0.00 0.00 L 500.00 0.00 L 500.00 115.79 L 419.25 116.44 C286.20,117.52 63.64,118.98 30.75,118.99 L 0.00 119.00 Z" fill="rgb(0,0,0)"/>
<path d="M 112.67 419.27 C112.18,418.49 110.10,207.57 110.01,150.25 L 110.00 141.00 L 55.00 141.00 L 0.00 141.00 L 0.00 130.00 L 0.00 119.00 L 30.75 118.99 C63.64,118.98 286.20,117.52 419.25,116.44 L 500.00 115.79 L 500.00 124.31 L 500.00 132.84 L 439.08 133.17 C405.58,133.35 377.92,133.75 377.61,134.06 C377.30,134.36 377.53,197.98 378.11,275.43 C378.68,352.88 378.78,416.60 378.33,417.04 C377.87,417.47 360.40,417.97 339.50,418.15 L 301.50 418.48 L 300.87 404.99 C300.52,397.57 300.18,366.52 300.12,336.00 C300.05,305.48 299.70,257.86 299.33,230.19 L 298.67 179.87 L 240.42 180.19 C208.38,180.36 181.94,180.73 181.66,181.01 C181.38,181.29 181.56,234.81 182.06,299.94 C182.56,365.08 182.84,418.49 182.69,418.64 C182.54,418.79 166.87,419.23 147.86,419.61 C124.33,420.09 113.11,419.98 112.67,419.27 Z" fill="rgb(254,254,254)"/>
</g>
</svg>